<?xml version="1.0" encoding="UTF-8"?>
<svg id="Layer_1" data-name="Layer 1" xmlns="http://www.w3.org/2000/svg" viewBox="0 0 1713.47 922.24">
  <defs>
    <style>
      .cls-1 {
        fill: #ffc413;
      }

      .cls-2 {
        fill: #010101;
      }

      .cls-3 {
        fill: #f8bb5a;
      }

      .cls-4 {
        fill: #b03b3b;
      }

      .cls-5 {
        fill: #fee05b;
      }

      .cls-6 {
        fill: #ea8a42;
      }

      .cls-7 {
        fill: #faa53f;
      }

      .cls-8 {
        fill: #e4a924;
      }

      .cls-9 {
        fill: #d6403f;
      }
    </style>
  </defs>
  <path class="cls-7" d="M7.48,877.01h0c9.23,27.37,37.93,43.07,65.96,36.1,110.96-27.61,394.91-96.93,716.09-165.01l71.18-14.93c52.87-10.98,106.44-21.83,160.15-32.39l87.34-16.87c161.43-30.61,321.28-57.61,463.81-76.04l-81.63-119.3L176.19,814.41,7.48,877.01"/>
  <path class="cls-9" d="M1535.63,563.44l-156.49,26.41-57.34-52.53c-119.77-152.89-522-294.71-522-294.71l97.23-70.64c388.26,77.77,638.61,391.48,638.61,391.48Z"/>
  <path class="cls-1" d="M1417.34,583.61c-78.47,12.7-155.18,25.74-229.7,38.94-38.86,6.89-71.29,34.28-83.48,71.82-3.46,10.64-5.22,21.76-4.85,33.12.68,21.04,8.46,41.08,14.99,61.08s11.94,41.29,7.76,61.93c-4.18,20.63-20.59,40.17-41.6,41.35-23.91,1.36-43.52-21.21-48.57-44.61-5.07-23.42.32-47.62,3.42-71.36,3.1-23.75,3.41-49.7-10.09-69.5-11.29-16.56-30.96-26.13-50.87-28.51-19.9-2.36-40.08,1.8-59.05,8.23-24.66,8.37-50.76,24.15-55.14,49.83-2.86,16.73,14.66,60.26-20.3,65.18-32.16,4.52-30.44-29.01-44.71-46.65-25.97-32.12-68.58-43.39-113.91-34.04-.06.02-673.75,156.6-673.75,156.6C303.56,614.13,666.16,341.27,817.46,229.54c15.45-3.31,30.9-6.62,46.36-9.92,25.6-5.48,53.83-10.61,76.72,2.1,18.36,10.2,29.38,29.97,46.3,42.41,22.62,16.65,52.95,18.29,80.85,15.06,25.48-2.96,50.72-9.42,76.3-9.82,28.74,15.28,56.59,31.9,83.68,49.65h0c8.47,28.7.99,63.35,19.44,87.1,13.9,17.88,38.18,23.52,60.63,26.43,22.45,2.9,46.38,4.71,64.64,18.09,16.61,12.17,25.84,32.38,29.04,52.72,2.94,18.66-1.03,53.41,15.91,80.26Z"/>
  <path class="cls-9" d="M859.43,459.63c-58.68,24.97-120.29,23.7-140.24-23.17-19.95-46.86,14.73-97.39,73.4-122.37,58.68-24.98,119.13-14.95,139.08,31.91,19.95,46.87-13.57,88.65-72.24,113.63Z"/>
  <path class="cls-4" d="M809.78,378.79c-11.38,4.84-23.33,4.6-27.2-4.49-3.87-9.09,2.86-18.89,14.24-23.74,11.38-4.85,23.11-2.9,26.98,6.19,3.87,9.09-2.63,17.19-14.01,22.04Z"/>
  <path class="cls-4" d="M779.57,421.25c-11.38,4.84-23.33,4.6-27.2-4.49-3.87-9.09,2.86-18.89,14.24-23.74,11.38-4.85,23.11-2.9,26.98,6.19,3.87,9.09-2.63,17.19-14.01,22.04Z"/>
  <path class="cls-4" d="M862.07,396.11c-11.38,4.84-23.33,4.6-27.2-4.49-3.87-9.09,2.86-18.89,14.24-23.74,11.38-4.85,23.11-2.9,26.98,6.19,3.87,9.09-2.63,17.19-14.01,22.04Z"/>
  <path class="cls-9" d="M573.36,689.9c-58.68,24.97-120.29,23.7-140.24-23.17-19.95-46.86,14.73-97.39,73.4-122.37,58.68-24.98,119.13-14.95,139.08,31.91,19.95,46.87-13.57,88.64-72.24,113.63Z"/>
  <path class="cls-9" d="M1126.38,553.45c-43.65,19-89.65,18.43-104.83-16.43-15.18-34.86,10.39-72.79,54.03-91.8,43.65-19.01,88.83-11.89,104.02,22.96,15.18,34.86-9.58,66.25-53.22,85.26Z"/>
  <path class="cls-9" d="M877.12,621.2c-29.34,12.49-60.15,11.85-70.12-11.59-9.98-23.43,7.36-48.69,36.7-61.18,29.34-12.49,59.57-7.47,69.54,15.96,9.98,23.44-6.78,44.32-36.12,56.81Z"/>
  <path class="cls-9" d="M241.61,677.41c11.45,5.55,20.51,14.49,25.78,26.87,14.9,34.99-10.13,66.17-53.92,84.82-38.49,16.38-78.68,17.64-97.95-6.05l126.1-105.64Z"/>
  <path class="cls-4" d="M1106.19,492.92c-9.45,4.11-19.41,3.99-22.69-3.56-3.29-7.55,2.25-15.76,11.7-19.87,9.45-4.11,19.23-2.57,22.52,4.97,3.29,7.55-2.07,14.34-11.52,18.46Z"/>
  <path class="cls-4" d="M1081.31,528.5c-9.45,4.11-19.41,3.99-22.69-3.56-3.29-7.55,2.25-15.76,11.7-19.87,9.45-4.11,19.23-2.57,22.52,4.97,3.29,7.55-2.07,14.34-11.52,18.46Z"/>
  <path class="cls-4" d="M1149.86,506.99c-9.45,4.11-19.41,3.99-22.69-3.56-3.29-7.55,2.25-15.76,11.7-19.87,9.45-4.11,19.23-2.57,22.52,4.97,3.29,7.55-2.07,14.34-11.52,18.46Z"/>
  <path class="cls-4" d="M859.74,581.42c-5.53,2.35-11.33,2.23-13.21-2.18-1.88-4.41,1.39-9.17,6.91-11.52,5.53-2.35,11.22-1.41,13.1,3.01,1.88,4.41-1.28,8.35-6.8,10.7Z"/>
  <path class="cls-4" d="M845.07,602.03c-5.53,2.35-11.33,2.23-13.21-2.18-1.88-4.41,1.39-9.17,6.91-11.52,5.53-2.35,11.22-1.41,13.1,3.01,1.88,4.41-1.28,8.35-6.8,10.7Z"/>
  <path class="cls-4" d="M885.12,589.83c-5.53,2.35-11.33,2.23-13.21-2.18-1.88-4.41,1.39-9.17,6.91-11.52,5.53-2.35,11.22-1.41,13.1,3.01,1.88,4.41-1.28,8.35-6.8,10.7Z"/>
  <path class="cls-4" d="M522.97,602.75c-11.38,4.84-23.33,4.6-27.2-4.49-3.87-9.09,2.86-18.89,14.24-23.74,11.38-4.85,23.11-2.9,26.98,6.19,3.87,9.09-2.63,17.19-14.01,22.04Z"/>
  <path class="cls-4" d="M492.75,645.2c-11.38,4.84-23.33,4.6-27.2-4.49-3.87-9.09,2.86-18.89,14.24-23.74,11.38-4.85,23.11-2.9,26.98,6.19,3.87,9.09-2.63,17.19-14.01,22.04Z"/>
  <path class="cls-4" d="M575.26,620.07c-11.38,4.84-23.33,4.6-27.2-4.49-3.87-9.09,2.86-18.89,14.24-23.74,11.38-4.85,23.11-2.9,26.98,6.19,3.87,9.09-2.63,17.19-14.01,22.04Z"/>
  <path class="cls-4" d="M236.63,755.15c-8.6,3.74-17.66,3.63-20.65-3.24-2.99-6.87,2.05-14.34,10.64-18.08,8.6-3.74,17.5-2.34,20.49,4.52,2.99,6.87-1.89,13.05-10.48,16.8Z"/>
  <path class="cls-4" d="M193.98,772.55c-8.6,3.74-17.66,3.63-20.65-3.24-2.99-6.87,2.05-14.34,10.64-18.08,8.6-3.74,17.5-2.34,20.49,4.52,2.99,6.87-1.89,13.05-10.48,16.8Z"/>
  <path class="cls-5" d="M521.04,493.66c.09.06.18.12.26.19,6.71,4.73,16.2,4.13,21.72-1.38,17.68-17.64,124.29-97.61,147.93-108.45,6.95-3.19,9.54-10.87,5.88-17.25l-.14-.24c-3.7-6.45-12.43-9.21-19.54-6.16-27.13,11.65-137.18,92.78-158.15,111.96-6.56,6-5.59,15.96,2.03,21.32Z"/>
  <path class="cls-5" d="M478.56,527.65c6.92,6.99,15.78,3.15,23.66-4.66,7.88-7.81,11.8-16.63,4.88-23.62-6.92-6.99-17.27-4.66-25.15,3.15-7.88,7.81-10.3,18.14-3.38,25.12Z"/>
  <path class="cls-4" d="M1536.44,557.84l-118.23,20.96c-9.73-15.23-12.7-33.06-14.05-49.01,37.16-10.02,68.26-18.4,85.48-23.04,30.57,31.08,46.81,51.09,46.81,51.09Z"/>
  <path class="cls-8" d="M1417.23,583.42l-37.68,6.36c-.13.03-.28.05-.41.07-65.2,10.72-129.11,21.66-191.5,32.7-38.86,6.89-71.29,34.28-83.48,71.82-3.46,10.64-5.22,21.76-4.85,33.12.68,21.04,8.46,41.08,14.99,61.08s11.94,41.29,7.76,61.93c-4.18,20.63-20.59,40.17-41.6,41.35-23.91,1.36-43.52-21.21-48.57-44.61-5.07-23.42.32-47.62,3.42-71.36,3.1-23.75,3.41-49.7-10.09-69.5-11.29-16.56-30.96-26.13-50.87-28.51-19.9-2.36-40.08,1.8-59.05,8.23-24.66,8.37-50.76,24.15-55.14,49.83-2.86,16.73,14.66,60.26-20.3,65.18-32.16,4.52-30.44-29.01-44.71-46.65-25.97-32.12-68.58-43.39-113.91-34.04-.06.02-673.75,156.6-673.75,156.6,22.39-19.88,45.16-39.82,68.19-59.74l505.88-109.49c39.57-7.53,76.23-14.08,107.78-19.07,28.96-4.59,58.57,3.37,81.13,22.09,17.12,14.19,38.36,27.73,55.12,25.36,25.62-3.64,26.38-86.21,123.08-89.34,117.81-3.81,99.69,107.45,121.47,104.82,21.42-2.58-11.44-126.32,91.13-153.69,43.57-11.63,111.92-29.57,176.13-46.38,23.05-6.02,45.56-11.91,66.21-17.29,1.22,15.96,4.04,33.81,13.64,49.12Z"/>
  <path class="cls-4" d="M859.43,459.63c-58.68,24.97-120.29,23.71-140.24-23.17-1.14-2.68-2.1-5.37-2.88-8.05,23.4,38.73,81.02,38.39,136.06,14.97,55.31-23.55,88.27-62.04,75.14-105.65,1.54,2.62,2.92,5.38,4.16,8.28,19.95,46.87-13.57,88.64-72.24,113.62Z"/>
  <path class="cls-4" d="M573.37,689.9c-58.68,24.97-120.3,23.71-140.25-23.17-1.14-2.68-2.1-5.37-2.89-8.06,23.4,38.73,81.03,38.4,136.07,14.98,55.32-23.55,88.28-62.05,75.13-105.66,1.54,2.62,2.93,5.38,4.17,8.29,19.95,46.87-13.57,88.65-72.23,113.62Z"/>
  <path class="cls-4" d="M1126.38,553.44c-43.64,19.01-89.65,18.44-104.83-16.43-1.2-2.76-2.15-5.52-2.84-8.3,18.36,26.93,60.41,25.98,100.48,8.54,40.2-17.52,64.39-45.54,56.06-77.11,1.65,2.49,3.11,5.17,4.35,8.04,15.18,34.86-9.58,66.25-53.22,85.26Z"/>
  <path class="cls-4" d="M877.12,621.2c-29.34,12.49-60.14,11.85-70.12-11.58-1.21-2.85-2.02-5.73-2.46-8.61,12.95,15.74,39.81,14.88,65.52,3.94,25.77-10.98,41.84-28.43,38.6-48.4,1.8,2.33,3.35,4.94,4.58,7.84,9.97,23.43-6.79,44.32-36.12,56.81Z"/>
  <path class="cls-4" d="M213.47,789.1c-38.49,16.38-78.67,17.64-97.95-6.04l6.28-5.26c21.39,11.63,53.55,8.26,84.61-4.95,40.37-17.17,64.78-45.02,56.69-76.66,1.62,2.51,3.05,5.21,4.28,8.1,14.9,34.99-10.12,66.17-53.92,84.82Z"/>
  <path class="cls-7" d="M1536.35,583.48c-152.25-153.74-313.1-298.1-521.16-370.67-41.41-14.44-83.5-25.53-126.12-35.7,0,0-41.17-108.82,52.28-155.11,24.76-12.26,52.65-16.68,80.1-13.53,162.71,18.72,316.04,90.75,440.81,192.63,91.46,74.69,170.73,164.14,230.2,266.34,56.04,102.45-74.98,198.7-156.11,116.04Z"/>
  <path class="cls-6" d="M1536.35,583.48c-152.25-153.74-313.11-298.1-521.17-370.68-41.4-14.44-83.49-25.52-126.11-35.69,0,0-15.81-41.76-5.61-84.55,2.64,14.17,6.12,23.34,6.12,23.34,42.62,10.17,84.71,21.25,126.11,35.69,208.06,72.58,368.92,216.93,521.17,370.68,58.29,59.4,142.36,26.42,164.25-34.88,30.48,94.31-88.94,173.34-164.75,96.08Z"/>
  <path class="cls-3" d="M1527.15,346.42c-.19.1-.38.19-.58.29-14.65,7.41-33.25,3.49-42.58-9-29.89-40-67.82-75.25-111.45-103.52-12.82-8.31-15.74-24.26-6.65-35.83l.33-.43c9.18-11.69,27.25-14.63,40.44-6.54,50.33,30.87,94.71,69.42,130.65,113.43,11.24,13.76,6.45,33.18-10.17,41.59Z"/>
  <path class="cls-3" d="M1601.4,425.94c-15.71,11.82-32.13,1.68-45.47-16.05s-18.54-36.31-2.83-48.14c15.71-11.82,35.52-4.23,48.86,13.5,13.34,17.72,15.15,38.86-.56,50.69Z"/>
  <path class="cls-2" d="M1698.92,463.68c-58.1-99.85-136.13-190.15-231.93-268.38-64.28-52.48-134.22-95.72-207.87-128.53-77.29-34.43-156.96-56.54-236.82-65.73-29.47-3.39-58.61,1.54-84.28,14.25-40.81,20.21-63.4,55.24-65.34,101.3-1.08,25.66,4.52,47.78,7.55,57.67-9.26,6.71-32.54,23.67-66.64,48.86-.41.25-.79.53-1.14.84-113.2,83.66-343.44,256.62-575.05,447.26-.2.14-.41.27-.6.43l-4.3,3.6c-40.45,33.34-80.92,67.2-120.8,101.2l-1,.84c-.08.07-.15.14-.22.21-36.65,31.27-72.79,62.66-107.94,93.86-.31.27-.58.56-.84.88-.03.04-.07.08-.1.12-.22.28-.42.58-.6.89-.04.06-.07.13-.11.2-.17.31-.32.63-.44.96-.02.05-.03.1-.05.14-.11.33-.21.67-.28,1.01,0,.03-.01.05-.02.08-.07.36-.1.72-.11,1.09,0,.06,0,.12,0,.18,0,.36.02.72.07,1.08,0,.05.02.1.03.16.05.33.13.65.22.98.02.06.03.11.05.17,0,.03.01.05.02.07,5.07,15.02,15.52,27.49,29.43,35.1,9.2,5.04,19.38,7.65,29.67,7.74,5.26.04,10.55-.57,15.76-1.87,107.44-26.73,391.21-96.07,711.67-164.07.82.93,1.62,1.88,2.41,2.85,3.77,4.67,6.37,11,9.12,17.7,3.34,8.14,6.79,16.55,12.86,22.83,7.34,7.6,17.3,10.57,29.59,8.84,14.34-2.02,23.71-10.1,27.1-23.35,2.63-10.29,1.38-21.96.27-32.25-.55-5.11-1.07-9.98-.95-13.47,50.98-10.57,101.58-20.8,150.56-30.45.39.53.8,1.05,1.17,1.59,12.83,18.82,11.47,44.26,8.86,64.31-.54,4.12-1.16,8.36-1.77,12.45-2.96,20.08-6.02,40.84-1.56,61.46,2.86,13.2,9.88,26.08,19.28,35.34,9.93,9.79,21.99,15.13,34.24,15.23.93,0,1.86-.01,2.79-.07,25.85-1.46,43.97-24.92,48.51-47.34,4.53-22.38-1.16-44.82-7.98-65.73-.93-2.85-1.89-5.71-2.85-8.56-5.77-17.22-11.23-33.48-11.78-50.44-.33-10.09,1.18-20.38,4.49-30.56.68-2.09,1.43-4.14,2.24-6.17,174.31-32.99,328.21-58.21,457.53-74.97,10.1,3.88,20.68,6.11,31.56,6.57,1.15.05,2.3.08,3.45.09,22.69.19,45.42-7.35,64.37-21.41,19.89-14.75,34.08-35.57,39.95-58.6,6.55-25.68,2.62-52.77-11.37-78.34-.03-.06-.06-.11-.09-.17ZM890.67,185.19c34.42,8.25,78.7,19.56,122.05,34.68,35.24,12.29,70.01,26.97,104.58,44.18-7.7,1.03-15.33,2.3-22.83,3.55-9.08,1.52-18.47,3.09-27.64,4.15-32.68,3.79-58.1-.8-75.56-13.65-6.83-5.03-12.7-11.43-18.9-18.22-8.28-9.05-16.83-18.4-28.21-24.71-24.5-13.61-52.73-9.12-81.92-2.87l-12.3,2.63c21-15.43,35.07-25.65,40.72-29.75ZM260.51,707.21c6.11,14.35,4.68,28.28-4.25,41.4-8.86,13.03-24.67,24.65-45.71,33.61-34.9,14.85-66.71,15.12-83.96,1.32l115.52-96.78c.14-.12.28-.23.42-.35,8.17,4.96,14.21,11.94,17.98,20.8ZM71.63,905.85c-21.33,5.3-43.42-4.86-53.7-23.59,609.87-141.75,660.48-153.51,664.81-154.52,35.37-7.3,67.31-1.42,90.71,16.12-316.44,67.34-595.46,135.52-701.82,161.99ZM873.16,722.95c10.3-15.96,31.18-25.24,44.53-29.77,21.32-7.23,39.56-9.81,55.77-7.89,11.51,1.37,22.2,5.3,30.93,11.11-42.86,8.47-86.87,17.37-131.22,26.54ZM1107.19,790.89c6.19,18.97,11.39,39.14,7.54,58.12-3.32,16.38-16.61,34.35-34.7,35.37-20.05,1.14-36.53-18.8-40.84-38.73-3.89-17.97-1.16-36.5,1.74-56.12.61-4.16,1.24-8.45,1.8-12.69,2.73-20.92,4.53-51.43-11.33-74.68-11.81-17.31-32.29-28.87-56.17-31.72-18.47-2.19-38.86.61-62.34,8.58-20.06,6.8-54.55,23.08-60.11,55.65-.93,5.47-.22,12.13.61,19.85,2.77,25.8,1.35,36.95-14.58,39.19-15.62,2.19-19.83-6.22-26.52-22.53-3.04-7.4-6.17-15.06-11.33-21.43-1.81-2.24-3.72-4.39-5.71-6.47-.23-.27-.48-.52-.74-.75-12.72-13.01-28.78-22.56-46.99-27.83-20.58-5.96-44.03-6.51-67.8-1.61-.06.01-.13.03-.19.04-1.58.37-516.29,120-644.93,149.9,26.38-23.21,53.25-46.48,80.42-69.7,11.08,10.02,26.57,15.19,44.8,15.34,16.97.14,36.29-4.05,56.58-12.69,51.26-21.83,73.43-58.09,57.88-94.63-4.28-10.06-11-18.5-19.7-24.86,228.32-187.57,454.08-357.18,566.12-439.99l44.69-9.56c26.3-5.63,51.55-9.77,71.52,1.32,9.24,5.13,16.62,13.2,24.43,21.73,6.42,7.02,13.06,14.27,21.07,20.17,15.84,11.66,36.63,17.62,62.01,17.83,7.63.06,15.68-.39,24.13-1.37,9.55-1.11,19.13-2.71,28.39-4.25,15.57-2.6,30.31-5.04,45.28-5.45,26.37,14.09,52.65,29.67,78.98,46.83,2.42,9.42,3.23,19.54,4.06,30.21,1.54,19.79,3.13,40.26,15.95,56.75,8.36,10.76,23.36,23.8,65.57,29.26,2.13.28,4.28.54,6.43.81,19.56,2.42,39.78,4.93,54.75,15.9,18.22,13.36,24.16,35.71,26.07,47.85.72,4.55,1,10.33,1.32,17.01.78,16.09,1.8,37.24,10.46,56.38-72.63,11.8-146.07,24.28-219.48,37.28-42.1,7.46-76.31,36.91-89.29,76.87-3.85,11.84-5.6,23.84-5.22,35.67.62,19.15,6.68,37.23,12.55,54.71.95,2.82,1.89,5.64,2.81,8.45ZM1421.24,575.41c-9.12-17.27-10.12-37.83-10.93-54.61-.33-6.82-.64-13.27-1.49-18.62-3.93-24.88-15.29-45.33-32.01-57.58-18.11-13.27-40.3-16.02-61.76-18.68-2.13-.26-4.25-.53-6.35-.8-20.52-2.65-43.19-7.54-55.67-23.6-10.07-12.95-11.42-30.33-12.85-48.73-.45-5.79-.91-11.68-1.66-17.54,17.85,12.08,35.72,24.88,53.67,38.44,78.84,59.54,150.6,127.07,212.37,188.52-27.61,4.3-55.4,8.7-83.32,13.21ZM1122.3,673.63c14.79-22.71,38.71-38.76,66.65-43.71,76.74-13.6,153.53-26.61,229.37-38.89,0,0,.01,0,.02,0,33.33-5.39,66.47-10.64,99.34-15.73,4.51,4.52,8.96,9.01,13.36,13.44,5.47,5.57,11.27,10.48,17.33,14.7-122.28,16.37-265.4,39.95-426.06,70.19ZM1661.52,588.78c-15.35,11.39-34.91,18.61-55.44,18.44-10.19-.09-20.62-1.99-30.89-6.11-.22-.1-.43-.19-.66-.27-11.32-4.65-22.45-12-32.84-22.59,0,0-.02-.02-.02-.02-67.76-68.43-149.33-147.66-240.46-216.48-23.14-17.48-46.18-33.73-69.19-48.81-.13-.09-.26-.18-.39-.26-27.88-18.25-55.71-34.77-83.64-49.65-.31-.19-.63-.36-.96-.51-42.73-22.69-85.69-41.54-129.37-56.77-43.69-15.24-88.14-26.62-122.81-34.94-2.59-8.3-8.29-29.67-7.19-54.03,1.85-40.62,21.03-70.25,57.01-88.07,23.08-11.43,49.34-15.85,75.93-12.8,78.34,9.01,156.55,30.73,232.44,64.53,72.44,32.27,141.24,74.81,204.49,126.45,94.37,77.06,171.22,165.96,228.41,264.22,26.72,48.94,7,94.35-24.42,117.66Z"/>
  <path class="cls-2" d="M1660.65,458.65c-20.5-7.64-51.35-12.82-81.93,5.92-29.19,17.88-39.59,51.54-39.59,77.09,0,4.13,3.35,7.48,7.48,7.48s7.48-3.35,7.48-7.48c0-21.49,8.52-49.68,32.44-64.33,25.45-15.59,51.51-11.14,68.89-4.65,3.87,1.44,8.18-.53,9.62-4.4s-.52-8.18-4.4-9.62Z"/>
  <path class="cls-2" d="M1101.24,825.15c-4.1-.33-7.73,2.71-8.08,6.83-.78,9.26-5.4,17.92-11.51,21.55-3.55,2.11-4.72,6.7-2.61,10.25,1.4,2.35,3.89,3.66,6.44,3.66,1.3,0,2.62-.34,3.82-1.05,10.22-6.08,17.59-19.09,18.77-33.15.34-4.12-2.71-7.74-6.83-8.08Z"/>
  <path class="cls-2" d="M1325.35,166.6c-73.41-50.02-155.31-88.18-242.13-107.86-23.33-5.29-46.95-9.17-70.72-11.79-7.49-.82-7.43,10.9,0,11.72,85.05,9.35,167.34,37.24,242.23,78.29,22.21,12.18,43.77,25.5,64.7,39.76,6.25,4.26,12.12-5.89,5.92-10.12Z"/>
  <path class="cls-2" d="M1111.57,102.63c-26.31-6.33-52.97-10.97-79.86-13.93-7.49-.82-7.43,10.9,0,11.72,25.85,2.85,51.46,7.43,76.75,13.51,7.33,1.76,10.46-9.53,3.12-11.3Z"/>
  <path class="cls-2" d="M789.65,307.21c-65.55,27.91-98.07,83.5-77.35,132.18,10.44,24.53,31.74,39.41,61.58,43.02,4.27.52,8.69.79,13.24.83,22.86.19,49.06-5.59,75.23-16.73h0c31.28-13.32,55.09-31.05,68.85-51.28,15.31-22.5,17.85-47.45,7.33-72.16-20.73-48.69-83.35-63.77-148.9-35.87ZM918.84,406.82c-12.15,17.85-33.71,33.74-62.34,45.93-29.02,12.35-57.72,17.61-80.81,14.81-24.58-2.98-41.27-14.42-49.62-34.03-10.85-25.47-2.36-48.05,6.67-62.49,12.82-20.5,35.11-38.28,62.77-50.06,20.03-8.53,40.37-12.84,59.05-12.69,7.12.06,14.01.77,20.54,2.14,16.68,3.5,38.83,13.03,49.68,38.51,8.54,20.07,6.54,39.54-5.94,57.88Z"/>
  <path class="cls-2" d="M503.59,537.48c-65.54,27.91-98.07,83.5-77.35,132.18,10.44,24.53,31.74,39.41,61.58,43.02,4.27.52,8.69.79,13.24.83,22.86.19,49.06-5.59,75.23-16.73h0c31.28-13.32,55.09-31.05,68.85-51.28,15.31-22.5,17.85-47.45,7.33-72.16-20.73-48.69-83.35-63.77-148.9-35.87ZM632.78,637.09c-12.15,17.85-33.71,33.74-62.35,45.93-29.02,12.35-57.72,17.61-80.81,14.81-24.58-2.98-41.27-14.42-49.62-34.03-10.85-25.48-2.36-48.05,6.68-62.49,12.82-20.5,35.11-38.28,62.77-50.06,20.03-8.53,40.37-12.84,59.05-12.69,7.12.06,14.01.77,20.54,2.14,16.68,3.5,38.83,13.03,49.68,38.51,8.54,20.07,6.54,39.54-5.94,57.88Z"/>
  <path class="cls-2" d="M1129.37,560.3c51.07-22.25,72.95-58.69,57.09-95.11-8.19-18.81-24.78-31.61-46.71-36.03-20.3-4.09-44.14-.83-67.15,9.19-49.76,21.68-74.11,64.42-57.9,101.64,8.23,18.91,24.75,30.27,47.76,32.86,3.25.37,6.62.55,10.09.55,17.33,0,37.12-4.53,56.82-13.11h0ZM1028.41,534.03c-12.75-29.27,8.35-63.73,50.16-81.95,14.66-6.38,29.55-9.68,43.24-9.68,5.19,0,10.21.47,14.98,1.44,12.03,2.42,28.03,9.14,35.95,27.34,6.23,14.3,4.91,28.23-3.91,41.43-8.76,13.1-24.47,24.85-45.44,33.98-37.45,16.31-81.35,18.75-94.98-12.56Z"/>
  <path class="cls-2" d="M887.27,535.62c-14.06-2.96-30.58-.85-46.5,5.93-34.77,14.8-51.86,44.66-40.65,71,6.68,15.7,21.76,24.02,41.2,24.18,11.63.1,24.83-2.73,38.73-8.65,0,0,0,0,0,0,35.73-15.22,51.09-40.74,40.07-66.62-5.71-13.41-17.38-22.59-32.85-25.84ZM874.19,614.32c-24.04,10.23-52.02,11.84-60.31-7.63-8.86-20.8,9.77-41.59,32.74-51.37,9.54-4.06,19.2-6.12,28.01-6.05,3.32.03,6.52.36,9.55.99,7.47,1.57,17.37,5.8,22.17,17.06,11.14,26.16-21.8,42.59-32.17,47Z"/>
</svg>